<svg width="40" height="40" xmlns="http://www.w3.org/2000/svg">
 <g>
  <title>Layer 1</title>
  <polyline stroke-linecap="round" id="svg_2" points="642,97 642,98 " stroke="#000" fill="none"/>
  <path transform="rotate(-0.211582 19.4741 18.2393)" stroke="#000" id="svg_1" d="m39.81378,18.1883l-5.27262,-4.96243l0,-11.85181l-4.52013,0l0,7.59761l-10.54697,-9.92648l-20.33972,19.14312l4.84213,-0.10858l0,19.3538l30.77993,0l0,-19.24522l5.05738,0zm-20.33972,16.47715l-10.04416,0l0,-11.34455l10.04416,0l0,11.34455zm9.75831,-4.86195l-6.60025,0l0,-6.55067l6.60025,0l0,6.55067z" fill="#0f53ff"/>
  <path id="svg_3" d="m221.02906,206.48461l-0.01531,-0.12928l0,-0.30876l-0.01313,0l0,0.19793l-0.03063,-0.25861l-0.05906,0.49872l0.01406,-0.00283l0,0.50421l0.08938,0l0,-0.50138l0.01469,0zm-0.05906,0.42926l-0.02917,0l0,-0.29555l0.02917,0l0,0.29555zm0.02834,-0.12666l-0.01917,0l0,-0.17066l0.01917,0l0,0.17066z" stroke="#000" fill="#fff"/>
 </g>

</svg>