<svg width="50.00000000000001" height="50.00000000000001" xmlns="http://www.w3.org/2000/svg">
 <g>
  <title>Layer 1</title>
  <polyline fill="none" stroke="#000" points="642,97 642,98 " id="svg_2" stroke-linecap="round"/>
  <path stroke="#000" id="svg_9" d="m315.98107,278.52774c-1.16015,-0.88469 -1.00794,-1.42041 1.81273,-6.37966c1.4243,-2.50416 2.58962,-4.6258 2.58962,-4.71474c0,-0.08893 -3.93297,-0.16171 -8.73997,-0.16171l-8.73997,0l0,-4.69005l0,-4.69005l8.80924,0c6.79242,0 8.73341,-0.14129 8.47807,-0.61711c-0.18214,-0.33941 -1.42462,-2.59168 -2.76106,-5.00504c-2.51921,-4.54924 -2.51841,-5.76924 0.00389,-6.14739c1.25526,-0.18819 20.79813,14.27113 21.46986,15.88506c-6.50956,5.76262 -14.29069,11.79461 -21.45838,17.11311c-0.37794,0 -1.03674,-0.26659 -1.46403,-0.59243l0,0l0,0.00001z" fill="#eaedef" transform="rotate(-179.515 320.903 262.62)"/>
  <ellipse stroke="#000" ry="21.00037" rx="21.50038" id="svg_4" cy="25" cx="24.5" fill="#4f7dff"/>
  <path transform="rotate(-180 24.3015 26.9001)" id="svg_5" d="m20.74637,36.5412c-0.8379,-0.53619 -0.72797,-0.86087 1.30921,-3.86653c1.02868,-1.5177 1.87031,-2.80356 1.87031,-2.85747c0,-0.0539 -2.84053,-0.09801 -6.31231,-0.09801l-6.31231,0l0,-2.8425l0,-2.8425l6.36234,0c4.90572,0 6.30757,-0.08563 6.12316,-0.37401c-0.13155,-0.20571 -1.02891,-1.57075 -1.99413,-3.03341c-1.81946,-2.75716 -1.81889,-3.49657 0.00281,-3.72576c0.90659,-0.11406 15.02114,8.64932 15.50628,9.62748c-4.70143,3.49256 -10.32124,7.14838 -15.49799,10.37177c-0.27296,0 -0.74877,-0.16157 -1.05737,-0.35905l0,0z" stroke="#000" fill="#eff0f2"/>
 </g>

</svg>